<svg width="32" height="32" viewBox="0 0 64 64" xmlns="http://www.w3.org/2000/svg" fill="#000000">
    <path d="M32 0C14.4 0 0 12.8 0 28.6C0 34.8 2.6 40.5 6.8 45C4.4 50.3 1.1 56 1 56C0.7 56.7 0.9 57.5 1.5 58C1.9 58.4 2.5 58.6 3 58.6C4.1 58.6 10.5 55.9 15.7 52.7C20.9 54.9 26.7 56.1 32.1 56.1C49.6 56.1 64 43.3 64 28.6C64 12.8 49.6 0 32 0ZM32.1 52.1C27.1 52.1 22.3 50.9 17.9 48.7C17.5 48.5 17.1 48.5 16.7 48.7C13.4 50.8 8.6 53.3 5.1 54.9C6.8 51.5 9.3 46.1 9.3 46C9.5 45.5 9.4 44.8 9 44.4C5.2 40.5 3 34.8 3 28.6C3 14.5 15.1 3 32 3C48.9 3 61 14.5 61 28.6C61 42.7 48.9 52.1 32.1 52.1Z"/>
</svg>