<svg width="185" height="185" viewBox="0 0 185 185" fill="none" xmlns="http://www.w3.org/2000/svg">
<path d="M0 0H185V185H0V0Z" fill="#D9D9D9"/>
<path d="M174.118 167.829C174.118 165.077 172.041 162.844 169.48 162.844C167.565 162.844 165.921 164.092 165.214 165.872C164.506 164.092 162.862 162.844 160.947 162.844C158.388 162.844 156.31 165.077 156.31 167.829C156.31 175.828 165.214 181.123 165.214 181.123C165.214 181.123 174.118 175.828 174.118 167.829Z" fill="#F086A0" stroke="black" stroke-width="1.5" stroke-linecap="round" stroke-linejoin="round"/>
<path d="M143.047 162.093C144.135 162.235 144.933 163.286 144.933 164.514V181.677L137.514 177.522L130.094 181.677V164.514C130.094 163.286 130.891 162.235 131.98 162.093C135.657 161.615 139.37 161.615 143.047 162.093Z" fill="#FFE6A5" stroke="black" stroke-width="1.5" stroke-linecap="round" stroke-linejoin="round"/>
</svg>
