<svg width="65" height="65" viewBox="0 0 65 65" fill="none" xmlns="http://www.w3.org/2000/svg">
<circle cx="32.5" cy="32.5" r="32.5" fill="#FFE6A5"/>
<path d="M48.2 51L35.6 38.4C34.6 39.2 33.45 39.8333 32.15 40.3C30.85 40.7667 29.4667 41 28 41C24.3667 41 21.2917 39.7417 18.775 37.225C16.2583 34.7083 15 31.6333 15 28C15 24.3667 16.2583 21.2917 18.775 18.775C21.2917 16.2583 24.3667 15 28 15C31.6333 15 34.7083 16.2583 37.225 18.775C39.7417 21.2917 41 24.3667 41 28C41 29.4667 40.7667 30.85 40.3 32.15C39.8333 33.45 39.2 34.6 38.4 35.6L51 48.2L48.2 51ZM28 37C30.5 37 32.625 36.125 34.375 34.375C36.125 32.625 37 30.5 37 28C37 25.5 36.125 23.375 34.375 21.625C32.625 19.875 30.5 19 28 19C25.5 19 23.375 19.875 21.625 21.625C19.875 23.375 19 25.5 19 28C19 30.5 19.875 32.625 21.625 34.375C23.375 36.125 25.5 37 28 37Z" fill="#2D5E17"/>
</svg>
