<svg width="59" height="59" viewBox="0 0 59 59" fill="none" xmlns="http://www.w3.org/2000/svg">
<g filter="url(#filter0_d_74_98)">
<circle cx="29.5" cy="25.5" r="25.5" fill="#FFE6A5"/>
<path d="M42 38L34.4935 30.4935M34.4935 30.4935C36.5252 28.4619 37.6665 25.7064 37.6665 22.8333C37.6665 19.9601 36.5252 17.2046 34.4935 15.173C32.4619 13.1414 29.7064 12 26.8333 12C23.9601 12 21.2046 13.1414 19.173 15.173C17.1414 17.2046 16 19.9601 16 22.8333C16 25.7064 17.1414 28.4619 19.173 30.4935C21.2046 32.5252 23.9601 33.6665 26.8333 33.6665C29.7064 33.6665 32.4619 32.5252 34.4935 30.4935Z" stroke="#2D5E17" stroke-width="3" stroke-linecap="round" stroke-linejoin="round"/>
</g>
<defs>
<filter id="filter0_d_74_98" x="0" y="0" width="59" height="59" filterUnits="userSpaceOnUse" color-interpolation-filters="sRGB">
<feFlood flood-opacity="0" result="BackgroundImageFix"/>
<feColorMatrix in="SourceAlpha" type="matrix" values="0 0 0 0 0 0 0 0 0 0 0 0 0 0 0 0 0 0 127 0" result="hardAlpha"/>
<feOffset dy="4"/>
<feGaussianBlur stdDeviation="2"/>
<feComposite in2="hardAlpha" operator="out"/>
<feColorMatrix type="matrix" values="0 0 0 0 0 0 0 0 0 0 0 0 0 0 0 0 0 0 0.25 0"/>
<feBlend mode="normal" in2="BackgroundImageFix" result="effect1_dropShadow_74_98"/>
<feBlend mode="normal" in="SourceGraphic" in2="effect1_dropShadow_74_98" result="shape"/>
</filter>
</defs>
</svg>
