<svg width="28" height="35" viewBox="0 0 28 35" fill="none" xmlns="http://www.w3.org/2000/svg">
<path d="M27.25 14.125C27.25 26.6235 14.125 33.8125 14.125 33.8125C14.125 33.8125 1 26.6235 1 14.125C1 10.644 2.38281 7.30564 4.84422 4.84422C7.30564 2.38281 10.644 1 14.125 1C17.606 1 20.9444 2.38281 23.4058 4.84422C25.8672 7.30564 27.25 10.644 27.25 14.125Z" fill="#F77E77" stroke="black" stroke-width="1.5" stroke-linecap="round" stroke-linejoin="round"/>
<path d="M19.375 14.3125C19.375 15.7049 18.8219 17.0402 17.8373 18.0248C16.8527 19.0094 15.5174 19.5625 14.125 19.5625C12.7326 19.5625 11.3973 19.0094 10.4127 18.0248C9.42812 17.0402 8.875 15.7049 8.875 14.3125C8.875 12.9201 9.42812 11.5848 10.4127 10.6002C11.3973 9.61562 12.7326 9.0625 14.125 9.0625C15.5174 9.0625 16.8527 9.61562 17.8373 10.6002C18.8219 11.5848 19.375 12.9201 19.375 14.3125Z" fill="white" stroke="black" stroke-width="1.5" stroke-linecap="round" stroke-linejoin="round"/>
</svg>
