<svg width="31" height="31" viewBox="0 0 31 31" fill="none" xmlns="http://www.w3.org/2000/svg">
<path d="M15.5 10.75V20.5M20.375 15.625H10.625M30.125 15.625C30.125 17.5456 29.7467 19.4474 29.0117 21.2217C28.2768 22.9961 27.1995 24.6084 25.8414 25.9664C24.4834 27.3245 22.8711 28.4018 21.0967 29.1367C19.3224 29.8717 17.4206 30.25 15.5 30.25C13.5794 30.25 11.6776 29.8717 9.90325 29.1367C8.12887 28.4018 6.51662 27.3245 5.15856 25.9664C3.80051 24.6084 2.72324 22.9961 1.98826 21.2217C1.25329 19.4474 0.875 17.5456 0.875 15.625C0.875 11.7462 2.41584 8.02628 5.15856 5.28356C7.90128 2.54084 11.6212 1 15.5 1C19.3788 1 23.0987 2.54084 25.8414 5.28356C28.5842 8.02628 30.125 11.7462 30.125 15.625Z" stroke="black" stroke-width="1.5" stroke-linecap="round" stroke-linejoin="round"/>
</svg>
